Coordinates
version=1
nRows=10
nColumns=63
inDegrees=yes

Units are S.I. units (second, meters, Newtons, ...)
If the header above contains a line with 'inDegrees', this indicates whether rotational values are in degrees (yes) or radians (no).

endheader
time	pelvis_tilt	pelvis_list	pelvis_rotation	pelvis_tx	pelvis_ty	pelvis_tz	hip_flexion_r	hip_adduction_r	hip_rotation_r	knee_angle_r	knee_angle_r_beta	ankle_angle_r	subtalar_angle_r	mtp_angle_r	hip_flexion_l	hip_adduction_l	hip_rotation_l	knee_angle_l	knee_angle_l_beta	ankle_angle_l	subtalar_angle_l	mtp_angle_l	L5_S1_Flex_Ext	L5_S1_Lat_Bending	L5_S1_axial_rotation	L4_L5_Flex_Ext	L4_L5_Lat_Bending	L4_L5_axial_rotation	L3_L4_Flex_Ext	L3_L4_Lat_Bending	L3_L4_axial_rotation	L2_L3_Flex_Ext	L2_L3_Lat_Bending	L2_L3_axial_rotation	L1_L2_Flex_Ext	L1_L2_Lat_Bending	L1_L2_axial_rotation	L1_T12_Flex_Ext	L1_T12_Lat_Bending	L1_T12_axial_rotation	Abs_r3	Abs_r2	Abs_r1	Abs_t1	Abs_t2	neck_flexion	neck_bending	neck_rotation	arm_flex_r	arm_add_r	arm_rot_r	elbow_flex_r	pro_sup_r	wrist_flex_r	wrist_dev_r	arm_flex_l	arm_add_l	arm_rot_l	elbow_flex_l	pro_sup_l	wrist_flex_l	wrist_dev_l
2.796610	-2.435814	-5.521621	73.681952	0.191274	0.936164	0.495557	10.801366	1.291127	2.390180	16.875549	0.294534	24.121904	-9.762654	0.000000	4.247161	-2.564673	12.026617	0.823323	0.014370	25.753043	-8.147317	0.000000	0.073949	0.467278	0.316286	0.137330	0.621480	0.336054	0.121490	1.136140	0.336054	0.084516	1.136140	0.276750	0.068669	0.952874	0.256982	0.042254	0.723814	0.237215	0.528207	5.285945	1.759089	0.000000	0.000000	27.404628	2.158829	1.582546	13.570586	-18.891023	109.313598	5.249578	-0.928870	-3.589361	-4.561145	17.002492	-14.605674	113.282931	9.298501	5.522008	-8.794515	-6.946585
2.813559	-2.466828	-5.333539	73.295703	0.192282	0.936498	0.495056	10.655630	1.290138	2.689980	16.972859	0.296232	24.315147	-9.626446	0.000000	3.902692	-2.527165	11.639592	0.790417	0.013795	25.762860	-7.991900	0.000000	0.059014	0.444898	0.372934	0.109594	0.591715	0.396242	0.096954	1.081725	0.396242	0.067447	1.081725	0.326317	0.054800	0.907236	0.303009	0.033720	0.689147	0.279700	0.421529	5.032777	2.074147	0.000000	0.000000	27.282581	2.397091	1.262591	13.468372	-18.529515	110.460942	4.854327	-2.068107	-2.975638	-4.643487	16.839416	-14.569457	112.312968	9.535601	5.547400	-8.443160	-6.283031
2.830508	-2.428774	-5.122877	72.881091	0.193450	0.936904	0.494314	10.417683	1.368828	3.108028	16.994540	0.296611	24.442355	-9.642132	0.000000	3.477489	-2.550199	11.334809	0.749181	0.013076	25.754154	-8.025890	0.000000	0.041764	0.430679	0.433881	0.077560	0.572804	0.460998	0.068614	1.047154	0.460998	0.047732	1.047154	0.379646	0.038782	0.878241	0.352528	0.023864	0.667122	0.325411	0.298316	4.871932	2.413115	0.000000	0.000000	27.131583	2.583475	0.947097	13.330379	-18.265330	110.823143	4.624718	-2.291431	-2.528698	-4.605154	16.658462	-14.513880	111.115920	9.811651	5.666093	-8.132933	-5.764806
2.847458	-2.352265	-4.914230	72.444991	0.194764	0.937320	0.493311	10.141679	1.501666	3.603839	16.987306	0.296484	24.520241	-9.783680	0.000000	3.011905	-2.612111	11.019976	0.699370	0.012206	25.763293	-8.085623	0.000000	0.027687	0.422507	0.504933	0.051418	0.561934	0.536491	0.045487	1.027283	0.536491	0.031644	1.027283	0.441816	0.025710	0.861576	0.410258	0.015820	0.654463	0.378699	0.197766	4.779483	2.808283	0.000000	0.000000	26.991246	2.684204	0.613359	13.021876	-18.061763	109.455948	4.674988	-0.782523	-2.176898	-4.247549	16.483348	-14.425659	110.067930	10.083952	5.765246	-7.837635	-5.350023
2.864407	-2.198035	-4.685332	72.005938	0.196173	0.937803	0.491937	9.754791	1.711920	4.177868	16.890438	0.294794	24.512711	-10.048668	0.000000	2.473949	-2.738238	10.699418	0.647057	0.011293	25.806676	-8.187219	0.000000	0.013310	0.424655	0.579168	0.024718	0.564791	0.615366	0.021867	1.032507	0.615366	0.015212	1.032507	0.506772	0.012360	0.865957	0.470574	0.007605	0.657791	0.434376	0.095071	4.803785	3.221158	0.000000	0.000000	26.848616	2.694152	0.282701	12.516542	-17.960195	106.180269	5.081661	2.697212	-2.013815	-3.618172	16.298911	-14.275947	109.225435	10.327247	5.843672	-7.609786	-5.045348
2.881356	-2.049857	-4.423685	71.596266	0.197755	0.938368	0.490319	9.297664	1.920124	4.860223	16.759836	0.292514	24.443451	-10.550911	0.000000	1.890731	-2.845568	10.489278	0.589784	0.010294	25.821171	-8.434436	0.000000	-0.000366	0.423501	0.646833	-0.000680	0.563256	0.687260	-0.000602	1.029700	0.687260	-0.000419	1.029700	0.565979	-0.000340	0.863603	0.525552	-0.000209	0.656003	0.485124	-0.002617	4.790728	3.597489	0.000000	0.000000	26.684393	2.702662	-0.094834	12.359632	-17.619917	107.551178	4.594729	2.632847	-1.468043	-3.370366	16.117744	-14.152119	108.261412	10.565883	5.987150	-7.313711	-4.867113
2.898305	-1.860356	-4.143856	71.238951	0.199342	0.938994	0.488436	8.768497	2.159324	5.567156	16.586090	0.289482	24.318932	-11.180098	0.000000	1.272791	-2.979557	10.312544	0.529567	0.009243	25.858702	-8.691213	0.000000	-0.013296	0.427018	0.703780	-0.024692	0.567934	0.747767	-0.021844	1.038251	0.747767	-0.015196	1.038251	0.615808	-0.012347	0.870775	0.571822	-0.007597	0.661451	0.527835	-0.094972	4.830513	3.914215	0.000000	0.000000	26.499377	2.693853	-0.456420	12.196458	-17.311526	108.778178	4.192455	2.606871	-1.005040	-3.111897	15.941295	-13.990030	107.431600	10.758173	6.156804	-7.045315	-4.769467
2.915254	-1.618095	-3.850295	70.939481	0.200892	0.939671	0.486272	8.148879	2.438470	6.297434	16.327929	0.284976	24.121088	-11.917412	0.000000	0.623744	-3.149452	10.146962	0.471202	0.008224	25.917807	-8.940398	0.000000	-0.025099	0.437136	0.746466	-0.046612	0.581391	0.793120	-0.041236	1.062852	0.793120	-0.028686	1.062852	0.653158	-0.023307	0.891407	0.606504	-0.014342	0.677123	0.559850	-0.179282	4.944968	4.151620	0.000000	0.000000	26.292322	2.667505	-0.747817	12.017635	-17.031467	110.156994	3.812604	2.588691	-0.621974	-2.888933	15.752774	-13.790001	106.737081	10.915082	6.350539	-6.836734	-4.802320
2.932203	-1.347417	-3.544784	70.681870	0.202392	0.940351	0.483938	7.484174	2.736343	7.108755	16.054707	0.280207	23.867162	-12.824230	0.000000	-0.051303	-3.331053	10.162601	0.406825	0.007100	25.940875	-9.428913	0.000000	-0.036780	0.449927	0.783327	-0.068305	0.598402	0.832285	-0.060426	1.093952	0.832285	-0.042036	1.093952	0.685411	-0.034154	0.917490	0.636453	-0.021016	0.696936	0.587495	-0.262718	5.089660	4.356631	0.000000	0.000000	26.071375	2.666405	-1.037039	11.791769	-16.771837	111.664158	3.435649	2.463486	-0.275316	-2.713576	15.589396	-13.531728	106.452481	10.967778	6.415850	-6.611168	-4.875563
2.949153	-1.040936	-3.243714	70.512967	0.203761	0.941008	0.481427	6.778189	3.047923	7.794925	15.738832	0.274694	23.612797	-13.661233	0.000000	-0.715375	-3.538384	10.103178	0.371504	0.006484	26.025055	-9.727813	0.000000	-0.045569	0.467908	0.799454	-0.084625	0.622318	0.849420	-0.074865	1.137672	0.849420	-0.052080	1.137672	0.699523	-0.042315	0.954159	0.649557	-0.026038	0.724790	0.599591	-0.325492	5.293073	4.446326	0.000000	0.000000	25.805401	2.703516	-1.190745	11.557914	-16.579147	112.969062	3.205443	2.445530	-0.067807	-2.597947	15.403129	-13.256560	106.317390	11.001475	6.560273	-6.479516	-5.060681
